<?xml version="1.0" encoding="UTF-8"?>
<svg version="1.1" xmlns="http://www.w3.org/2000/svg" width="11" height="39">
<path d="M0 0 C2.375 0.3125 2.375 0.3125 5 1 C8.24223293 5.8633494 7.33301482 11.56016558 7.31567383 17.2512207 C7.31251603 19.42645464 7.33597082 21.60032502 7.36132812 23.77539062 C7.3636015 25.16145662 7.36430444 26.54752627 7.36328125 27.93359375 C7.36626221 29.19228271 7.36924316 30.45097168 7.37231445 31.74780273 C6.98065124 35.16901298 6.33481966 36.53707587 4 39 C1.6875 38.8125 1.6875 38.8125 -1 38 C-5.28557721 32.34732302 -4.4770418 26.36009548 -4.4375 19.5625 C-4.45748047 18.34755859 -4.47746094 17.13261719 -4.49804688 15.88085938 C-4.49203063 4.90120569 -4.49203063 4.90120569 0 0 Z " fill="#1BA2DD" transform="translate(4,0)"/>
<path d="M0 0 C0.66 0.33 1.32 0.66 2 1 C2 10.57 2 20.14 2 30 C0.68 30.33 -0.64 30.66 -2 31 C-2.04947698 27.06734104 -2.08575578 23.13480286 -2.10986328 19.2019043 C-2.12485495 17.20680382 -2.15026731 15.21179054 -2.17578125 13.21679688 C-2.18222656 11.96318359 -2.18867187 10.70957031 -2.1953125 9.41796875 C-2.20578613 8.26063232 -2.21625977 7.1032959 -2.22705078 5.91088867 C-2 3 -2 3 0 0 Z " fill="#DAF1F7" transform="translate(6,4)"/>
<path d="M0 0 C0.66 0.33 1.32 0.66 2 1 C1.01 2.485 1.01 2.485 0 4 C-0.36927046 7.0042707 -0.36927046 7.0042707 -0.4140625 10.41796875 C-0.45273438 11.67158203 -0.49140625 12.92519531 -0.53125 14.21679688 C-0.5621875 15.52712891 -0.593125 16.83746094 -0.625 18.1875 C-0.66319338 19.5228116 -0.70224591 20.85809892 -0.7421875 22.19335938 C-0.83659153 25.46209888 -0.92217017 28.73083064 -1 32 C-0.01 31.67 0.98 31.34 2 31 C2.33 21.43 2.66 11.86 3 2 C3.33 2 3.66 2 4 2 C4 11.24 4 20.48 4 30 C4.66 30 5.32 30 6 30 C5.3125 32.4375 5.3125 32.4375 4 35 C1.375 35.8125 1.375 35.8125 -1 36 C-1.99 34.68 -2.98 33.36 -4 32 C-3.67 31.34 -3.34 30.68 -3 30 C-2.86939561 27.91914695 -2.79728457 25.8344964 -2.75390625 23.75 C-2.70459961 21.87828125 -2.70459961 21.87828125 -2.65429688 19.96875 C-2.59310098 17.32300409 -2.53580894 14.677165 -2.48242188 12.03125 C-2.43118164 10.15953125 -2.43118164 10.15953125 -2.37890625 8.25 C-2.3538501 7.10015625 -2.32879395 5.9503125 -2.30297852 4.765625 C-2 2 -2 2 0 0 Z " fill="#44B6E3" transform="translate(5,3)"/>
</svg>
