<?xml version="1.0" encoding="UTF-8"?>
<svg version="1.1" xmlns="http://www.w3.org/2000/svg" width="11" height="39">
<path d="M0 0 C2.375 0.3125 2.375 0.3125 5 1 C8.24223293 5.8633494 7.33301482 11.56016558 7.31567383 17.2512207 C7.31251603 19.42645464 7.33597082 21.60032502 7.36132812 23.77539062 C7.3636015 25.16145662 7.36430444 26.54752627 7.36328125 27.93359375 C7.36626221 29.19228271 7.36924316 30.45097168 7.37231445 31.74780273 C6.98065124 35.16901298 6.33481966 36.53707587 4 39 C1.6875 38.8125 1.6875 38.8125 -1 38 C-5.28557721 32.34732302 -4.4770418 26.36009548 -4.4375 19.5625 C-4.45748047 18.34755859 -4.47746094 17.13261719 -4.49804688 15.88085938 C-4.49203063 4.90120569 -4.49203063 4.90120569 0 0 Z " fill="#C38137" transform="translate(4,0)"/>
<path d="M0 0 C0.66 0.33 1.32 0.66 2 1 C2 9.91 2 18.82 2 28 C0.68 28 -0.64 28 -2 28 C-2.05796132 23.89589245 -2.09358313 19.79188984 -2.125 15.6875 C-2.14175781 14.52025391 -2.15851563 13.35300781 -2.17578125 12.15039062 C-2.18222656 11.03212891 -2.18867187 9.91386719 -2.1953125 8.76171875 C-2.20578613 7.73006592 -2.21625977 6.69841309 -2.22705078 5.63549805 C-2 3 -2 3 0 0 Z " fill="#FAF4F0" transform="translate(6,4)"/>
<path d="M0 0 C0.66 0.33 1.32 0.66 2 1 C1.01 2.485 1.01 2.485 0 4 C-0.27625094 6.71378472 -0.27625094 6.71378472 -0.1953125 9.76171875 C-0.18886719 10.87998047 -0.18242188 11.99824219 -0.17578125 13.15039062 C-0.15902344 14.31763672 -0.14226563 15.48488281 -0.125 16.6875 C-0.11597656 17.86634766 -0.10695313 19.04519531 -0.09765625 20.25976562 C-0.07406423 23.17338026 -0.0411454 26.08658892 0 29 C0.66 29 1.32 29 2 29 C2.33 20.09 2.66 11.18 3 2 C3.33 2 3.66 2 4 2 C4 11.57 4 21.14 4 31 C2.35 31.33 0.7 31.66 -1 32 C-3.33716009 29.66283991 -2.17162619 23.81167112 -2.18554688 20.70117188 C-2.18546631 20.0223999 -2.18538574 19.34362793 -2.18530273 18.64428711 C-2.18748734 16.57449736 -2.20563491 14.50524207 -2.22460938 12.43554688 C-2.22654297 11.13810547 -2.22847656 9.84066406 -2.23046875 8.50390625 C-2.23457764 7.30580322 -2.23868652 6.1077002 -2.24291992 4.87329102 C-2 2 -2 2 0 0 Z " fill="#D5A069" transform="translate(5,3)"/>
<path d="M0 0 C0.66 0.33 1.32 0.66 2 1 C2 9.91 2 18.82 2 28 C1.67 28 1.34 28 1 28 C1 19.75 1 11.5 1 3 C0.34 3 -0.32 3 -1 3 C-0.67 2.01 -0.34 1.02 0 0 Z " fill="#EAD5C4" transform="translate(6,4)"/>
</svg>
